<?xml version="1.0" encoding="UTF-8"?>
<svg xmlns="http://www.w3.org/2000/svg" xmlns:xlink="http://www.w3.org/1999/xlink" width="1125pt" height="1124.99995pt" viewBox="0 0 1125 1124.99995" version="1.2">
<defs>
<clipPath id="clip1">
  <path d="M 246.113281 325.472656 L 788 325.472656 L 788 756 L 246.113281 756 Z M 246.113281 325.472656 "/>
</clipPath>
<clipPath id="clip2">
  <path d="M 676.421875 596.71875 L 879.113281 596.71875 L 879.113281 799.453125 L 676.421875 799.453125 Z M 676.421875 596.71875 "/>
</clipPath>
</defs>
<g id="surface1">
<path style=" stroke:none;fill-rule:nonzero;fill:rgb(100%,56.858826%,30.198669%);fill-opacity:1;" d="M 516.695312 499.351562 C 472.183594 499.351562 435.96875 535.546875 435.96875 580.035156 C 435.96875 624.527344 472.183594 660.722656 516.695312 660.722656 C 561.203125 660.722656 597.417969 624.527344 597.417969 580.035156 C 597.417969 535.546875 561.203125 499.351562 516.695312 499.351562 "/>
<g clip-path="url(#clip1)" clip-rule="nonzero">
<path style=" stroke:none;fill-rule:nonzero;fill:rgb(100%,56.858826%,30.198669%);fill-opacity:1;" d="M 516.695312 696.703125 C 452.230469 696.703125 399.972656 644.46875 399.972656 580.035156 C 399.972656 515.601562 452.230469 463.371094 516.695312 463.371094 C 581.160156 463.371094 633.417969 515.601562 633.417969 580.035156 C 633.417969 644.46875 581.160156 696.703125 516.695312 696.703125 Z M 658.707031 698.15625 C 658.707031 682.097656 661.855469 666.511719 668.066406 651.828125 C 674.066406 637.65625 682.648438 624.929688 693.578125 614.007812 C 704.507812 603.082031 717.242188 594.503906 731.417969 588.507812 C 746.109375 582.300781 761.703125 579.148438 777.769531 579.148438 C 780.960938 579.148438 784.128906 579.28125 787.277344 579.527344 L 787.277344 450.980469 C 787.277344 402.175781 747.691406 362.609375 698.863281 362.609375 L 547.988281 362.609375 C 545.332031 341.785156 527.613281 325.492188 506.082031 325.492188 L 442.417969 325.492188 C 420.890625 325.492188 403.167969 341.785156 400.511719 362.609375 L 334.523438 362.609375 C 285.695312 362.609375 246.113281 402.175781 246.113281 450.980469 L 246.113281 666.664062 C 246.113281 715.472656 285.695312 755.039062 334.523438 755.039062 L 673.160156 755.039062 C 671.296875 751.617188 669.601562 748.097656 668.066406 744.484375 C 661.855469 729.804688 658.707031 714.214844 658.707031 698.15625 "/>
</g>
<g clip-path="url(#clip2)" clip-rule="nonzero">
<path style=" stroke:none;fill-rule:nonzero;fill:rgb(100%,56.858826%,30.198669%);fill-opacity:1;" d="M 821.707031 713.210938 L 792.824219 713.210938 L 792.824219 742.078125 C 792.824219 750.355469 786.046875 757.128906 777.765625 757.128906 C 769.480469 757.128906 762.707031 750.355469 762.707031 742.078125 L 762.707031 713.210938 L 733.828125 713.210938 C 725.542969 713.210938 718.769531 706.4375 718.769531 698.15625 C 718.769531 689.878906 725.542969 683.105469 733.828125 683.105469 L 762.707031 683.105469 L 762.707031 654.238281 C 762.707031 645.957031 769.480469 639.183594 777.765625 639.183594 C 786.046875 639.183594 792.824219 645.957031 792.824219 654.238281 L 792.824219 683.105469 L 821.707031 683.105469 C 829.988281 683.105469 836.765625 689.878906 836.765625 698.15625 C 836.765625 706.4375 829.988281 713.210938 821.707031 713.210938 Z M 777.765625 596.859375 C 721.792969 596.859375 676.421875 642.210938 676.421875 698.15625 C 676.421875 754.101562 721.792969 799.453125 777.765625 799.453125 C 833.738281 799.453125 879.109375 754.101562 879.109375 698.15625 C 879.109375 642.210938 833.738281 596.859375 777.765625 596.859375 "/>
</g>
<path style=" stroke:none;fill-rule:nonzero;fill:rgb(100%,100%,100%);fill-opacity:1;" d="M 821.710938 683.105469 L 792.828125 683.105469 L 792.828125 654.238281 C 792.828125 645.957031 786.054688 639.183594 777.769531 639.183594 C 769.484375 639.183594 762.710938 645.957031 762.710938 654.238281 L 762.710938 683.105469 L 733.828125 683.105469 C 725.542969 683.105469 718.769531 689.878906 718.769531 698.15625 C 718.769531 706.4375 725.542969 713.210938 733.828125 713.210938 L 762.710938 713.210938 L 762.710938 742.074219 C 762.710938 750.351562 769.484375 757.128906 777.769531 757.128906 C 786.054688 757.128906 792.828125 750.351562 792.828125 742.074219 L 792.828125 713.210938 L 821.710938 713.210938 C 829.992188 713.210938 836.769531 706.4375 836.769531 698.15625 C 836.769531 689.878906 829.992188 683.105469 821.710938 683.105469 "/>
</g>
</svg>
